<?xml version="1.0" standalone="no"?>
<!DOCTYPE svg PUBLIC "-//W3C//DTD SVG 20010904//EN"
 "http://www.w3.org/TR/2001/REC-SVG-20010904/DTD/svg10.dtd">
<svg version="1.0" xmlns="http://www.w3.org/2000/svg"
 width="80.000000pt" height="66.000000pt" viewBox="0 0 80.000000 66.000000"
 preserveAspectRatio="xMidYMid meet">
<metadata>
Created by potrace 1.16, written by Peter Selinger 2001-2019
</metadata>
<g transform="translate(0.000000,66.000000) scale(0.100000,-0.100000)"
fill="#000000" stroke="none">
<path d="M157 502 c-86 -86 -157 -162 -157 -167 0 -6 74 -84 165 -175 l165
-165 27 28 28 27 -145 145 -145 145 140 140 c137 138 139 139 120 160 -10 11
-23 20 -29 20 -6 0 -82 -71 -169 -158z"/>
<path d="M292 502 c-89 -86 -162 -161 -163 -167 0 -5 76 -83 168 -172 l167
-161 168 161 c92 88 168 163 168 166 0 11 -325 331 -335 331 -6 -1 -83 -72
-173 -158z m291 -59 l114 -111 -116 -116 -116 -116 -118 118 -117 117 113 113
c61 61 115 111 119 110 3 -2 58 -53 121 -115z"/>
</g>
</svg>
