<svg width="475" height="455" viewBox="0 0 475 455" fill="none" xmlns="http://www.w3.org/2000/svg">
<path d="M178.333 454.773C276.456 454.773 356 448.301 356 440.318C356 432.335 276.456 425.863 178.333 425.863C80.2107 425.863 0.666656 432.335 0.666656 440.318C0.666656 448.301 80.2107 454.773 178.333 454.773Z" fill="#E6E7E8"/>
<path d="M474.444 300.106H347.333V405.626H474.444V300.106Z" fill="white"/>
<path d="M473.456 407.072H348.321C348.059 407.072 347.808 406.963 347.623 406.77C347.437 406.577 347.333 406.314 347.333 406.041V299.691C347.333 299.418 347.437 299.156 347.623 298.962C347.808 298.769 348.059 298.66 348.321 298.66H473.456C473.717 298.666 473.965 298.776 474.149 298.968C474.334 299.16 474.439 299.419 474.444 299.691V406.041C474.439 406.313 474.334 406.572 474.149 406.764C473.965 406.956 473.717 407.066 473.456 407.072V407.072ZM349.31 405.011H472.468V300.721H349.329L349.31 405.011Z" fill="#D1D3D4"/>
<path d="M473.456 316.006H348.321C348.059 316.006 347.808 315.778 347.623 315.371C347.437 314.965 347.333 314.413 347.333 313.838C347.333 313.263 347.437 312.711 347.623 312.305C347.808 311.898 348.059 311.67 348.321 311.67H473.456C473.718 311.67 473.97 311.898 474.155 312.305C474.34 312.711 474.444 313.263 474.444 313.838C474.439 314.41 474.334 314.955 474.149 315.359C473.965 315.763 473.717 315.995 473.456 316.006V316.006Z" fill="#D1D3D4"/>
<path d="M127.12 100.581C124.441 100.77 121.768 100.131 119.432 98.7442C117.095 97.3571 115.198 95.2825 113.975 92.777C112.751 90.2715 112.256 87.4451 112.549 84.6473C112.842 81.8496 113.911 79.2033 115.624 77.0359C108.13 73.4168 104.168 64.1221 104.717 55.506C105.266 46.8899 109.602 39.0553 115.016 32.4338C119.469 27.0256 125.06 22.1521 131.75 20.8155C133.016 20.6833 134.251 20.3214 135.399 19.7462C136.302 19.0801 137.086 18.2516 137.713 17.2991C142.598 10.76 148.621 4.75545 156.154 2.12333C163.687 -0.508784 172.907 0.992342 177.949 7.4287C180.469 5.13534 183.594 3.69814 186.91 3.30729C190.227 2.91643 193.578 3.59033 196.521 5.23982C199.464 6.88932 201.86 9.43664 203.392 12.5447C204.924 15.6528 205.519 19.1752 205.099 22.6456C210.406 23.467 215.383 25.8481 219.452 29.5131C223.522 33.178 226.517 37.9767 228.09 43.353C230.896 54.1694 226.129 66.8776 216.614 71.9979C215.516 72.5942 214.201 73.3756 214.241 74.6506C214.349 75.4201 214.677 76.1371 215.182 76.7069C218.243 81.2925 216.712 87.9345 213.221 92.0884C209.729 96.2422 204.51 98.4425 199.488 100.54C200.606 101.714 201.35 103.221 201.62 104.855C201.891 106.489 201.674 108.17 200.999 109.67C199.544 112.673 197.279 115.161 194.486 116.826C183.579 124.208 170.082 121.905 157.86 122.173C146.58 122.419 135.379 114.873 127.905 106.318C126.453 104.694 125.296 101.733 127.12 100.581Z" fill="white"/>
<path d="M171.405 123.753C169.429 123.753 167.453 123.753 165.636 123.753C163.067 123.753 160.38 123.63 157.851 123.753C147.537 123.937 136.116 117.942 126.909 107.651C126.261 106.978 125.751 106.176 125.412 105.293C125.072 104.41 124.909 103.465 124.933 102.515C124.922 102.441 124.922 102.365 124.933 102.29C122.273 102.158 119.697 101.282 117.479 99.7547C115.261 98.2278 113.484 96.1072 112.337 93.6183C111.19 91.1294 110.716 88.3652 110.964 85.6194C111.213 82.8737 112.175 80.249 113.749 78.0243C106.933 74.1368 102.684 65.3594 103.277 56.1932C103.771 48.3569 107.347 40.4388 113.888 32.623C119.578 25.8302 125.269 21.9427 131.315 20.7356L131.987 20.6128C132.937 20.5741 133.863 20.2876 134.678 19.7797C135.493 19.2718 136.171 18.5591 136.65 17.7075C142.854 9.52339 149.078 4.49017 155.756 2.17816C163.996 -0.665809 173.025 1.31883 178.143 6.98632C180.836 4.83313 184.074 3.53426 187.466 3.24687C190.857 2.95947 194.256 3.69586 197.251 5.36694C200.247 7.03802 202.711 9.57218 204.344 12.6628C205.978 15.7535 206.712 19.2681 206.457 22.7816C211.796 23.7806 216.767 26.2778 220.83 30.0011C224.892 33.7243 227.89 38.5307 229.496 43.8966C232.499 55.3339 227.184 68.4489 217.423 73.5844C216.435 74.0959 215.546 74.6688 215.566 75.2826C215.664 75.7071 215.861 76.1005 216.139 76.4284L216.317 76.6943C219.834 81.8503 217.838 89.0728 214.183 93.2467C210.567 96.9215 206.207 99.7171 201.419 101.431C202.284 102.771 202.806 104.317 202.938 105.924C203.069 107.53 202.805 109.145 202.169 110.617C200.657 113.772 198.27 116.386 195.313 118.126C187.983 123.037 179.684 123.753 171.405 123.753ZM160.044 121.543C161.921 121.543 163.818 121.543 165.675 121.543C175.555 121.748 185.73 121.973 194.167 116.326C196.826 114.792 198.98 112.469 200.352 109.656C200.965 108.352 201.17 106.884 200.94 105.454C200.71 104.024 200.055 102.703 199.067 101.676C198.938 101.562 198.839 101.416 198.78 101.251C198.721 101.086 198.705 100.909 198.731 100.735C198.759 100.559 198.83 100.393 198.937 100.253C199.044 100.114 199.184 100.005 199.344 99.9372C203.967 98.0139 209.223 95.8451 212.721 91.7531C215.862 88.1725 217.621 82.0345 214.696 77.7378L214.519 77.5128C213.98 76.8696 213.648 76.0686 213.57 75.2212C213.57 73.1752 215.447 72.1931 216.495 71.6407C225.465 66.853 230.326 54.8633 227.559 44.3058C225.996 39.1748 223.069 34.6034 219.114 31.1152C215.158 27.6269 210.333 25.3628 205.193 24.5821C204.937 24.5416 204.707 24.3989 204.552 24.1847C204.397 23.9705 204.329 23.7018 204.363 23.4363C204.751 20.1951 204.184 16.9081 202.737 14.0062C201.289 11.1043 199.029 8.72301 196.252 7.17457C193.475 5.62613 190.311 4.9828 187.174 5.32892C184.038 5.67504 181.076 6.99446 178.676 9.11418C178.577 9.20462 178.461 9.27305 178.335 9.31528C178.21 9.3575 178.077 9.37262 177.945 9.3597C177.815 9.34961 177.688 9.31168 177.572 9.2483C177.457 9.18492 177.355 9.09746 177.273 8.99142C172.828 3.38531 164.233 1.33929 156.408 4.0605C150.105 6.22929 144.178 11.0579 138.29 18.8123C137.592 19.8619 136.715 20.7703 135.701 21.4926C134.658 22.0677 133.518 22.4289 132.342 22.5566L131.71 22.6793C126.118 23.8046 120.783 27.467 115.389 33.8915C109.146 41.3595 105.747 48.8889 105.273 56.2546C104.7 65.0934 108.968 73.4821 115.686 76.7148C115.822 76.7806 115.943 76.8772 116.039 76.9976C116.134 77.118 116.203 77.259 116.239 77.4104C116.271 77.5645 116.267 77.7241 116.23 77.8767C116.192 78.0293 116.121 78.1708 116.022 78.2902C114.392 80.2841 113.369 82.7324 113.08 85.3272C112.792 87.9219 113.251 90.5471 114.4 92.8722C115.549 95.1973 117.337 97.1184 119.538 98.3938C121.739 99.6692 124.256 100.242 126.77 100.039C126.995 100.016 127.221 100.074 127.409 100.205C127.597 100.336 127.734 100.531 127.798 100.756C127.865 100.975 127.858 101.212 127.78 101.427C127.701 101.643 127.554 101.824 127.363 101.942C127.241 102.012 127.137 102.112 127.062 102.234C126.986 102.355 126.94 102.494 126.928 102.638C126.962 103.944 127.487 105.184 128.391 106.096C137.124 115.958 148.149 121.727 157.811 121.523L160.044 121.543Z" fill="#231F20"/>
<path d="M269.178 404.181C273.782 404.181 308.099 407.998 324.162 416.189C340.225 424.38 343.703 425.019 340.446 436.078C337.189 447.137 308.903 449.861 287.372 445.693C273.504 442.767 260.128 437.776 247.667 430.879L269.178 404.181Z" fill="white"/>
<path d="M307.438 448.991C300.699 448.963 293.977 448.259 287.361 446.89C273.664 443.888 260.45 438.779 248.134 431.724C248.02 431.65 247.92 431.553 247.842 431.437C247.764 431.322 247.709 431.19 247.68 431.051C247.657 430.914 247.663 430.774 247.697 430.639C247.731 430.505 247.793 430.38 247.878 430.274L268.98 403.092C269.058 402.981 269.159 402.89 269.275 402.828C269.392 402.766 269.52 402.734 269.651 402.735H269.848C275.35 402.735 308.227 406.726 324.005 415.066L327.555 416.935C340.196 423.531 343.608 425.338 340.453 436.471C338.461 443.529 325.484 448.991 307.438 448.991ZM249.968 430.61C261.844 437.288 274.545 442.146 287.696 445.042C308.898 449.243 335.798 446.26 338.737 435.925C341.439 426.346 339.487 425.317 326.766 418.679L323.216 416.809C308.168 408.848 275.982 404.794 270.085 404.668L249.968 430.61Z" fill="#231F20"/>
<path d="M273.352 402.735C276.241 403.516 278.755 405.475 280.391 408.218C282.026 410.96 282.663 414.284 282.172 417.523C280.737 429.544 257.722 430.051 256.402 430.199C255.082 430.347 273.352 402.735 273.352 402.735Z" fill="white"/>
<path d="M254.451 430.199C254.265 430.194 254.083 430.144 253.922 430.053C253.761 429.963 253.627 429.835 253.532 429.683C253.219 429.086 252.717 428.172 272.188 403.103C272.299 402.957 272.455 402.847 272.634 402.787C272.813 402.726 273.007 402.719 273.19 402.766C273.295 402.766 285.203 405.608 283.636 417.596C282.048 429.106 259.152 430.12 254.577 430.199H254.451ZM273.253 404.694C267.132 412.646 258.024 424.573 255.746 428.351C261.471 428.092 280.293 426.561 281.568 417.357C282.058 414.664 281.491 411.893 279.973 409.572C278.455 407.252 276.093 405.543 273.337 404.773L273.253 404.694Z" fill="#231F20"/>
<path d="M96 430.542C95.3025 430.914 88.7859 439.708 60.368 443.226C31.9502 446.743 21.408 453.096 15.0708 437.598C8.73357 422.1 13.078 412.085 27.0278 407.657C40.9777 403.229 79.6189 399.567 87.1917 406.975C94.7645 414.382 96 430.542 96 430.542Z" fill="white"/>
<path d="M28.4782 448.991C21.4701 448.991 16.9634 446.494 13.6678 438.24C10.3722 429.987 9.87585 422.898 12.2781 417.417C14.5016 412.338 19.187 408.592 26.1752 406.328C39.2386 402.095 78.9249 397.736 86.9853 405.841C94.7081 413.586 95.939 429.881 95.9986 430.558C96.0077 430.738 95.9721 430.916 95.8954 431.076C95.8187 431.236 95.7036 431.371 95.5618 431.468L95.2839 431.722C87.1242 439.637 71.4602 443.086 59.7071 444.568C53.6122 445.351 48.371 446.261 43.8246 447.065C38.7608 448.11 33.6313 448.753 28.4782 448.991V448.991ZM65.127 403.153C51.5276 403.153 35.0496 405.46 26.751 408.169C20.2392 410.285 15.9112 413.671 13.9259 418.242C11.742 423.194 12.2185 429.67 15.3354 437.478C20.0009 449.223 26.8899 448.06 43.4871 445.16C48.1328 444.356 53.4137 443.446 59.5284 442.663C71.0035 441.203 86.3103 437.859 94.1125 430.283C93.8346 427.511 92.1272 413.819 85.7147 407.301C82.8558 404.296 74.6962 403.153 65.127 403.153Z" fill="#231F20"/>
<path d="M104.667 424.436C104.667 424.436 92.0119 435.768 83.5819 434.425C75.1519 433.082 63.4946 428.129 68.1888 418.37C72.883 408.611 103.102 402.735 103.102 402.735L104.667 424.436Z" fill="white"/>
<path d="M84.248 435.981C83.6835 435.982 83.1198 435.939 82.5616 435.852C75.837 434.815 67.7174 431.836 65.115 426.545C64.4725 425.19 64.1682 423.689 64.2301 422.18C64.2919 420.671 64.7179 419.203 65.4689 417.909C70.6321 407.501 101.986 401.563 103.319 401.304C103.45 401.281 103.584 401.286 103.713 401.319C103.842 401.353 103.963 401.414 104.068 401.498C104.173 401.585 104.261 401.693 104.325 401.815C104.39 401.937 104.43 402.072 104.443 402.211L106.108 424.516C106.12 424.673 106.096 424.832 106.038 424.978C105.98 425.124 105.89 425.254 105.775 425.358C105.234 425.811 93.3877 435.981 84.248 435.981ZM102.631 403.463C97.1144 404.586 71.4025 410.265 67.2386 418.815C66.6244 419.831 66.2679 420.991 66.2024 422.188C66.1368 423.385 66.3644 424.579 66.8638 425.66C69.154 430.259 76.6489 432.937 82.9156 433.908C90.5563 435.096 102.028 425.984 104.235 424.17L102.631 403.463Z" fill="#231F20"/>
<path d="M259.222 330.818C259.222 330.818 245.722 385.488 196.451 395.929C147.179 406.369 121.683 403.615 104.223 369.087C86.7635 334.559 98.2845 313.431 98.2845 313.431L253.778 310.224L259.222 330.818Z" fill="#231F20"/>
<path d="M155.753 402.735C131.866 402.735 115.285 394.068 102.983 369.682C85.386 334.742 96.593 313.425 97.011 312.533C97.0979 312.377 97.2225 312.246 97.3727 312.155C97.5229 312.064 97.6933 312.016 97.8669 312.015L254.227 308.78C254.453 308.768 254.675 308.838 254.857 308.978C255.038 309.118 255.167 309.319 255.222 309.547L260.637 330.283C260.677 330.461 260.677 330.645 260.637 330.823C260.497 331.382 246.344 386.81 196.739 397.282C181.073 400.662 167.517 402.735 155.753 402.735ZM98.5637 314.068C97.011 317.489 89.1681 337.769 104.754 368.728C122.57 403.979 148.547 405.472 196.321 395.27C242.96 385.358 257.512 334.659 258.606 330.594L253.451 310.874L98.5637 314.068Z" fill="#231F20"/>
<path d="M85.3413 330.461C85.3413 330.461 59.7176 244.659 63.0823 190.889C66.4471 137.118 85.7395 135.2 112.06 132.168C123.747 130.807 186.005 121.257 209.319 149.679C232.633 178.101 273.667 311.218 273.667 311.218L85.3413 330.461Z" fill="#FF155E"/>
<path d="M178.596 132.473L174.617 160.721C174.617 160.721 165.902 175.312 148.454 167.925C131.005 160.538 130.667 146.922 130.667 146.922L138.943 94.7286C138.943 94.7286 157.347 77.8855 165.087 45.7009C165.087 45.7009 180.506 73.1369 202.889 79.306C202.889 79.306 201.397 102.095 197.398 116.219C193.418 129.876 178.875 132.311 178.596 132.473Z" fill="white"/>
<path d="M157.78 171.458C154.357 171.416 150.977 170.679 147.838 169.292C129.725 161.69 129.242 147.814 129.222 147.221L137.655 94.4763C137.696 94.2425 137.808 94.0279 137.977 93.8632C138.158 93.6997 156.452 76.738 164.14 45.0216C164.195 44.8269 164.304 44.6522 164.454 44.5182C164.604 44.3843 164.788 44.2966 164.985 44.2655C165.182 44.2373 165.382 44.2688 165.562 44.3561C165.741 44.4434 165.89 44.5825 165.992 44.756C166.153 45.0421 181.669 72.0991 203.586 78.1072C203.813 78.1685 204.011 78.3082 204.147 78.5022C204.283 78.6962 204.348 78.9324 204.331 79.1699C204.331 79.3947 202.761 102.405 198.736 116.567C195.415 128.236 184.648 132.242 179.737 133.468L175.712 161.24C175.693 161.375 175.653 161.507 175.591 161.628C173.608 164.589 170.957 167.025 167.859 168.735C164.761 170.445 161.306 171.378 157.78 171.458V171.458ZM139.667 95.1302L131.335 147.364C131.335 147.691 131.939 160.32 148.724 167.412C164.402 174.012 172.874 162.262 173.84 160.729L177.866 132.507C177.884 132.352 177.94 132.204 178.028 132.076C178.115 131.948 178.232 131.844 178.369 131.772C178.554 131.662 178.76 131.593 178.972 131.567C183.299 130.525 193.724 126.908 196.824 115.995C200.366 103.55 201.976 84.0949 202.278 79.8647C183.36 74.2244 169.634 54.4221 165.529 47.8622C157.881 76.6358 141.841 92.8823 139.667 95.1302Z" fill="#231F20"/>
<path d="M150.889 94.8088C150.649 92.1174 149.506 89.5753 147.636 87.5683C145.817 85.7652 143.688 84.2813 141.344 83.1827C140.128 82.4559 138.762 81.9969 137.342 81.838C136.338 81.8475 135.344 82.0369 134.41 82.3966C132.132 83.0991 130.188 84.5667 128.932 86.534C128.105 88.2029 127.715 90.043 127.798 91.8919C127.713 93.8928 127.9 95.8959 128.354 97.8498C128.857 99.8008 129.757 101.635 131.003 103.245C132.249 104.855 133.814 106.209 135.608 107.226C137.402 108.243 139.388 108.904 141.45 109.17C143.512 109.435 145.608 109.3 147.615 108.773" fill="white"/>
<path d="M143.244 110.748C139.825 110.751 136.502 109.573 133.804 107.402C131.106 105.23 129.186 102.189 128.35 98.7612C127.895 96.7658 127.71 94.7146 127.8 92.6664C127.731 90.6877 128.129 88.7213 128.959 86.9373C130.211 84.8134 132.155 83.2213 134.441 82.4475C135.419 82.0546 136.457 81.8481 137.506 81.838C138.962 81.9965 140.365 82.4893 141.613 83.2804C143.859 84.4143 145.9 85.94 147.645 87.7906C149.509 89.9311 150.647 92.6413 150.887 95.5107C150.903 95.7791 150.818 96.0436 150.65 96.2483C150.481 96.453 150.242 96.5819 149.983 96.6077C149.725 96.6198 149.471 96.53 149.275 96.3566C149.078 96.1831 148.952 95.9389 148.922 95.6732C148.729 93.2559 147.785 90.9681 146.23 89.1518C144.633 87.4747 142.765 86.0996 140.709 85.0886C139.729 84.439 138.622 84.0227 137.467 83.8696C136.671 83.8765 135.884 84.042 135.149 84.3572C133.293 84.9497 131.695 86.1925 130.629 87.8719C129.962 89.3725 129.652 91.0165 129.726 92.6664C129.631 94.5434 129.797 96.4247 130.217 98.2533C130.649 100.032 131.419 101.704 132.482 103.172C133.544 104.64 134.879 105.875 136.407 106.805C137.936 107.735 139.628 108.341 141.385 108.589C143.142 108.837 144.929 108.721 146.643 108.249C146.893 108.18 147.159 108.216 147.383 108.35C147.608 108.483 147.772 108.702 147.841 108.96C147.874 109.089 147.881 109.224 147.863 109.356C147.845 109.489 147.802 109.616 147.737 109.731C147.671 109.846 147.584 109.947 147.48 110.027C147.377 110.108 147.259 110.166 147.134 110.199C145.867 110.561 144.558 110.746 143.244 110.748V110.748Z" fill="#231F20"/>
<path d="M174.373 86.1744C174.373 86.1744 181.698 102.991 179.293 105.399C176.889 107.808 171.111 105.161 171.111 105.161" fill="white"/>
<path d="M176.483 107.852C174.371 107.786 172.285 107.353 170.315 106.572C170.19 106.521 170.075 106.446 169.978 106.35C169.881 106.253 169.804 106.139 169.751 106.012C169.697 105.885 169.669 105.749 169.667 105.611C169.665 105.473 169.69 105.336 169.74 105.208C169.845 104.953 170.043 104.749 170.292 104.639C170.541 104.53 170.822 104.523 171.076 104.621C172.577 105.208 177.244 106.572 179.032 105.019C180.122 104.096 177.408 95.8276 173.379 87.6852C173.316 87.5631 173.277 87.4292 173.266 87.2916C173.254 87.1539 173.27 87.0154 173.312 86.8842C173.355 86.7529 173.422 86.6317 173.511 86.5278C173.601 86.4239 173.709 86.3393 173.831 86.2792C174.075 86.1602 174.354 86.1418 174.611 86.2279C174.867 86.3139 175.081 86.4976 175.208 86.7409C177.737 91.8614 183.329 104.033 180.389 106.614C179.263 107.468 177.885 107.905 176.483 107.852V107.852Z" fill="#231F20"/>
<path d="M164.907 83.413C165.058 81.5062 164.112 79.8704 162.796 79.7594C161.479 79.6484 160.29 81.1041 160.14 83.0109C159.99 84.9177 160.935 86.5535 162.252 86.6645C163.568 86.7755 164.757 85.3197 164.907 83.413Z" fill="#231F20"/>
<path d="M189.599 86.9426C189.736 85.0348 188.78 83.4059 187.462 83.3044C186.145 83.2029 184.966 84.6672 184.829 86.575C184.691 88.4828 185.648 90.1117 186.965 90.2132C188.282 90.3147 189.461 88.8504 189.599 86.9426Z" fill="#231F20"/>
<path d="M173.173 119.418C170.113 119.467 167.084 118.839 164.346 117.588C159.561 115.3 156.499 110.926 155.237 104.594C155.214 104.474 155.218 104.352 155.246 104.235C155.275 104.117 155.329 104.005 155.406 103.906C155.482 103.808 155.579 103.724 155.691 103.66C155.803 103.595 155.928 103.552 156.058 103.532C156.318 103.494 156.583 103.549 156.799 103.685C157.015 103.822 157.166 104.029 157.219 104.264C158.34 110.011 161.063 113.946 165.226 115.959C173.634 119.985 185.464 115.117 185.585 115.062C185.826 114.963 186.101 114.956 186.349 115.041C186.596 115.127 186.797 115.299 186.906 115.52C186.962 115.629 186.994 115.747 186.999 115.867C187.004 115.988 186.983 116.108 186.936 116.221C186.89 116.334 186.819 116.437 186.727 116.524C186.636 116.611 186.527 116.68 186.405 116.728C182.225 118.393 177.732 119.306 173.173 119.418V119.418Z" fill="#231F20"/>
<path d="M178.333 132.745C178.333 132.745 161.178 134.291 152.333 126.648C152.333 126.648 159.863 152.75 175.684 152.666L178.333 132.745Z" fill="#231F20"/>
<path d="M175.978 154.112C159.12 154.112 151.263 129.056 150.928 127.996C150.87 127.787 150.877 127.565 150.948 127.36C151.018 127.155 151.15 126.978 151.323 126.855C151.489 126.721 151.694 126.648 151.905 126.648C152.116 126.648 152.321 126.721 152.487 126.855C161.311 133.97 178.544 132.604 178.722 132.583C178.868 132.573 179.016 132.596 179.153 132.652C179.29 132.708 179.413 132.795 179.514 132.906C179.614 133.018 179.689 133.151 179.733 133.296C179.777 133.441 179.789 133.595 179.768 133.745L177.024 153.215C176.982 153.469 176.853 153.699 176.661 153.863C176.469 154.027 176.227 154.116 175.978 154.112V154.112ZM153.869 130.259C156.376 136.64 163.482 151.421 175.208 152.053L177.636 134.744C173.846 134.907 162.16 135.03 153.909 130.259H153.869Z" fill="#231F20"/>
<path d="M92.5378 138.314C55.7222 133.584 21.1589 294.821 41.251 310.141C72.5852 334.056 168.222 301.402 168.222 301.402L158.655 258.856C158.655 258.856 89.6276 262.249 88.3719 247.629C87.1161 233.008 126.942 164.47 121.36 154.477C115.779 144.483 92.5378 138.314 92.5378 138.314Z" fill="#FF155E"/>
<path d="M222.157 259.632C221.926 259.639 221.7 259.56 221.525 259.413C221.35 259.266 221.239 259.061 221.212 258.837C216.217 224.767 205.26 167.712 201.712 164.37C201.54 164.195 201.444 163.962 201.444 163.719C201.445 163.477 201.543 163.244 201.717 163.07C201.891 162.896 202.127 162.794 202.377 162.786C202.627 162.777 202.87 162.863 203.056 163.025C207.611 167.325 219.323 232.775 223.102 258.572C223.137 258.818 223.071 259.068 222.918 259.267C222.765 259.465 222.536 259.597 222.283 259.632H222.157Z" fill="#231F20"/>
<path d="M186.297 342.025L122 323.252L240.086 300.106L304 328.024L186.297 342.025Z" fill="white"/>
<path d="M185.858 342.01C185.772 342.03 185.683 342.03 185.597 342.01L121.56 323.451C121.294 323.451 121.038 323.343 120.85 323.149C120.661 322.956 120.556 322.694 120.556 322.42C120.556 322.147 120.661 321.885 120.85 321.691C121.038 321.498 121.294 321.389 121.56 321.389L239.169 298.706C239.352 298.645 239.549 298.645 239.732 298.706L303.388 326.091C303.591 326.18 303.761 326.335 303.87 326.532C303.979 326.73 304.021 326.959 303.99 327.184C303.96 327.412 303.857 327.623 303.697 327.783C303.537 327.944 303.329 328.045 303.106 328.071L185.979 342.01H185.858ZM126.24 322.771L185.939 339.948L299.149 326.689L239.31 300.954L126.24 322.771Z" fill="#231F20"/>
<path d="M148.073 272.642C162.157 274.267 175.215 275.322 188.313 281.083C195.798 284.38 202.867 288.633 209.359 293.745C212.667 296.207 215.758 298.976 218.594 302.017C220.847 304.592 220.123 307.103 216.341 305.858C211.942 304.413 207.777 302.279 203.987 299.527C213.049 307.282 221.082 316.275 227.869 326.265C228.634 327.405 229.378 329.03 228.473 330.043C227.568 331.055 225.556 330.043 224.449 328.987L204.55 309.193C209.818 313.959 214.298 319.607 217.809 325.906C218.312 326.814 218.795 328.017 218.272 328.84C217.387 330.38 215.133 329.22 213.926 327.932C207.966 321.62 202.546 314.77 197.729 307.462L208.474 324.345C208.372 324.656 208.212 324.943 208.004 325.189C207.796 325.436 207.543 325.636 207.261 325.78C206.978 325.923 206.672 326.006 206.358 326.024C206.045 326.042 205.731 325.995 205.435 325.885C204.252 325.373 203.228 324.525 202.478 323.437L189.46 307.758L197.146 318.858C198.353 320.588 199.56 323.078 198.172 324.703C196.784 326.328 193.645 324.703 191.874 323.057C184.753 316.241 176.932 310.274 168.555 305.267C165.517 303.389 162.922 300.836 159.562 299.759C154.733 298.198 148.697 298.409 143.667 297.818" fill="white"/>
<path d="M226.536 330.461C225.221 330.308 223.997 329.69 223.071 328.713L216.771 322.617C217.185 323.288 217.598 323.979 217.972 324.649C218.371 325.179 218.623 325.809 218.703 326.475C218.783 327.14 218.687 327.815 218.425 328.429C218.249 328.742 218.003 329.008 217.709 329.206C217.415 329.403 217.081 329.527 216.732 329.567C215.987 329.557 215.253 329.388 214.575 329.069C213.897 328.751 213.291 328.291 212.794 327.718C211.495 326.377 210.235 325.015 208.995 323.654C209.004 323.728 209.004 323.803 208.995 323.877C208.92 324.253 208.769 324.609 208.552 324.92C208.335 325.232 208.056 325.493 207.735 325.686C207.31 325.948 206.837 326.118 206.346 326.184C205.855 326.25 205.356 326.212 204.88 326.072C203.556 325.536 202.408 324.619 201.573 323.43L199.25 320.687C199.54 321.349 199.642 322.082 199.544 322.801C199.446 323.521 199.153 324.197 198.698 324.751C198.415 325.078 198.07 325.343 197.684 325.528C197.298 325.713 196.879 325.815 196.454 325.828C194.398 325.596 192.494 324.599 191.099 323.024C184.199 316.495 176.604 310.796 168.459 306.035C167.455 305.426 166.49 304.735 165.545 304.003C163.825 302.619 161.905 301.521 159.856 300.752C156.423 299.855 152.903 299.364 149.362 299.289C147.669 299.187 146.016 299.086 144.46 298.923C144.223 298.892 144.007 298.766 143.86 298.572C143.712 298.378 143.645 298.132 143.673 297.887C143.685 297.766 143.72 297.65 143.777 297.543C143.833 297.437 143.909 297.343 144 297.268C144.092 297.192 144.197 297.136 144.31 297.103C144.423 297.07 144.541 297.06 144.657 297.074C146.193 297.236 147.807 297.338 149.461 297.44C153.148 297.512 156.814 298.024 160.387 298.964C162.606 299.801 164.69 300.979 166.569 302.459C167.475 303.129 168.4 303.78 169.365 304.369C177.621 309.211 185.327 314.991 192.339 321.601C193.404 322.719 194.781 323.465 196.277 323.735C196.46 323.728 196.64 323.683 196.805 323.603C196.971 323.523 197.12 323.408 197.242 323.267C198.305 322.069 196.848 319.732 196.178 318.777L188.658 308.108C188.588 308.015 188.536 307.908 188.506 307.794C188.476 307.68 188.468 307.561 188.482 307.444C188.497 307.327 188.534 307.214 188.591 307.112C188.648 307.009 188.725 306.92 188.815 306.848C188.981 306.681 189.204 306.587 189.436 306.587C189.668 306.587 189.89 306.681 190.056 306.848L202.813 321.947C203.435 322.846 204.287 323.549 205.274 323.979C205.507 324.046 205.751 324.065 205.991 324.033C206.231 324.002 206.462 323.921 206.672 323.796C206.797 323.728 206.905 323.631 206.987 323.511L196.73 307.6C196.597 307.398 196.547 307.149 196.591 306.909C196.635 306.669 196.77 306.457 196.966 306.32C197.162 306.182 197.402 306.131 197.635 306.177C197.868 306.222 198.073 306.362 198.206 306.564C202.898 313.551 208.168 320.105 213.956 326.153C214.597 326.879 215.471 327.341 216.417 327.454C216.495 327.451 216.571 327.428 216.636 327.385C216.702 327.342 216.756 327.281 216.791 327.21C217.007 326.864 216.791 326.214 216.338 325.32C213.968 321.133 211.134 317.246 207.892 313.737L203.502 309.429C203.36 309.255 203.285 309.033 203.29 308.805C203.295 308.577 203.381 308.359 203.53 308.192C203.68 308.025 203.884 307.92 204.104 307.897C204.323 307.874 204.543 307.935 204.723 308.067C206.278 309.449 207.754 310.892 209.172 312.416L224.213 327.149C224.797 327.835 225.601 328.282 226.477 328.409C226.557 328.412 226.636 328.395 226.708 328.36C226.78 328.324 226.843 328.271 226.89 328.205C227.343 327.718 226.89 326.62 226.241 325.726C219.648 316.177 211.848 307.58 203.049 300.163C202.888 300.004 202.789 299.791 202.771 299.562C202.752 299.333 202.816 299.106 202.95 298.922C203.084 298.739 203.278 298.613 203.496 298.568C203.714 298.523 203.94 298.563 204.132 298.679C207.752 301.28 211.735 303.294 215.944 304.653C217.322 305.101 218.051 304.918 218.189 304.653C218.326 304.389 218.189 303.495 217.224 302.438C214.492 299.545 211.507 296.92 208.306 294.595C202.015 289.724 195.165 285.676 187.91 282.544C176.354 277.566 164.797 276.285 152.473 274.924L148.634 274.477C148.517 274.464 148.404 274.428 148.301 274.37C148.199 274.312 148.108 274.233 148.035 274.139C147.961 274.044 147.907 273.936 147.875 273.819C147.842 273.703 147.833 273.581 147.847 273.461C147.859 273.34 147.894 273.224 147.95 273.118C148.006 273.011 148.083 272.918 148.174 272.842C148.266 272.766 148.371 272.71 148.484 272.677C148.596 272.644 148.714 272.634 148.831 272.648L152.768 273.075C165.152 274.457 176.826 275.757 188.619 280.837C196.011 283.998 202.994 288.093 209.408 293.03C212.699 295.446 215.77 298.167 218.582 301.158C220 302.743 220.433 304.471 219.724 305.629C219.311 306.279 218.208 307.255 215.432 306.36C213.831 305.855 212.259 305.251 210.727 304.552C217.022 310.631 222.713 317.343 227.717 324.588C229.076 326.62 229.253 328.266 228.249 329.404C228.034 329.649 227.773 329.845 227.482 329.981C227.191 330.118 226.875 330.191 226.556 330.197L226.536 330.461Z" fill="#231F20"/>
<path d="M302.556 328.125L331.444 246.623L213.453 249.086L187 342.025L302.556 328.125Z" fill="white"/>
<path d="M186.548 342.025C186.402 342.027 186.259 341.994 186.128 341.931C185.996 341.867 185.881 341.773 185.79 341.657C185.686 341.529 185.613 341.376 185.579 341.212C185.544 341.049 185.548 340.879 185.591 340.718L212.211 249.769C212.275 249.563 212.4 249.382 212.567 249.251C212.734 249.12 212.937 249.044 213.147 249.033L331.88 246.623C332.043 246.621 332.204 246.658 332.349 246.733C332.495 246.808 332.621 246.917 332.717 247.052C332.803 247.19 332.859 247.346 332.88 247.508C332.901 247.671 332.886 247.836 332.836 247.992L303.766 327.646C303.701 327.827 303.588 327.986 303.44 328.105C303.293 328.223 303.116 328.298 302.929 328.32L186.667 342.025H186.548ZM213.924 251.055L188.022 339.819L302.192 326.462L330.525 248.686L213.924 251.055Z" fill="#231F20"/>
<path d="M296.642 327.442C296.642 327.442 328.772 355.03 317.486 380.327C306.2 405.624 100.906 434.536 100.906 434.536L91.6667 401.464C91.6667 401.464 252.711 314.478 296.642 327.442Z" fill="#231F20"/>
<path d="M100.443 434.536C100.229 434.533 100.022 434.458 99.8508 434.323C99.6797 434.188 99.5537 433.999 99.4908 433.784L90.2679 400.908C90.1974 400.677 90.2088 400.427 90.3 400.204C90.3912 399.981 90.5559 399.801 90.7638 399.696C91.1605 399.467 131.483 377.848 176.666 358.048C237.458 331.417 277.622 320.639 296.028 326.028C296.167 326.068 296.295 326.139 296.405 326.237C302.002 331.244 306.974 336.978 311.202 343.301C320.048 356.711 322.19 369.41 317.39 380.062C305.926 405.419 108.952 433.345 100.582 434.515L100.443 434.536ZM92.3902 401.117L101.157 432.28C115.477 430.191 304.954 402.662 315.605 379.123C326.077 355.896 297.754 330.059 295.295 327.949C253.603 316.232 104.41 394.851 92.5092 401.158L92.3902 401.117Z" fill="#231F20"/>
<path d="M79.8446 314.857C79.8446 314.857 240.949 382.41 280.889 400.235L257.676 437.427C257.676 437.427 108.921 434.407 66.2703 395.654C23.6197 356.901 26.451 292.388 79.8446 314.857Z" fill="#231F20"/>
<path d="M256.848 438.872C256.49 438.872 219.453 438.064 177.739 432.556C121.617 425.123 84.2016 413.197 66.5091 397.067C44.3786 376.9 28.8752 341.493 41.055 320.932C45.0353 314.099 55.6628 304.264 81.0174 314.948C82.6095 315.632 241.145 382.345 280.292 399.841C280.425 399.898 280.545 399.985 280.641 400.096C280.738 400.207 280.809 400.34 280.849 400.483C280.889 400.629 280.899 400.781 280.879 400.931C280.858 401.081 280.807 401.225 280.73 401.353L257.723 438.395C257.63 438.547 257.5 438.671 257.346 438.754C257.193 438.838 257.021 438.878 256.848 438.872ZM60.9964 312.319C52.8168 312.319 46.5478 315.59 42.7267 322.009C33.3332 337.89 41.1545 371.226 67.8027 395.514C108.024 432.184 246.38 436.532 256.31 436.78L278.401 401.27C237.523 383.049 81.8333 317.537 80.2412 316.874C74.1629 314.097 67.6313 312.551 60.9964 312.319Z" fill="#231F20"/>
<path d="M302.879 295.744C303.051 296.646 303.448 297.492 304.035 298.207L307.146 302.761C307.032 302.291 306.815 301.85 306.509 301.471C306.202 301.092 305.815 300.784 305.374 300.567C304.932 300.351 304.448 300.232 303.955 300.22C303.462 300.207 302.972 300.301 302.52 300.494C301.636 300.962 300.903 301.662 300.399 302.514C299.896 303.366 299.643 304.338 299.668 305.322C299.758 307.288 300.232 309.219 301.064 311.01C303.278 316.64 308.283 324.869 315.521 320.608C320.426 317.715 321.782 307.511 322.48 302.429C323.856 292.421 320.725 279.559 307.605 281.513C307.983 286.442 309.858 291.146 312.988 295.021C310.855 292.988 302.221 289.841 302.879 295.744Z" fill="white"/>
<path d="M311.542 323.233C310.709 323.239 309.882 323.099 309.098 322.819C304.189 321.141 301.124 314.821 299.737 311.195C298.833 309.183 298.32 307.017 298.225 304.813C298.191 303.588 298.506 302.378 299.133 301.326C299.76 300.273 300.673 299.42 301.766 298.866C302.273 298.635 302.824 298.515 303.382 298.514L302.926 297.83C302.219 296.94 301.749 295.885 301.559 294.764C301.394 293.941 301.508 293.087 301.884 292.336C302.259 291.585 302.873 290.981 303.63 290.62C305.754 289.964 308.047 290.134 310.05 291.096C308.061 287.618 306.872 283.738 306.571 279.742C306.557 279.503 306.632 279.267 306.781 279.08C306.93 278.893 307.143 278.767 307.379 278.726C309.451 278.273 311.603 278.33 313.649 278.893C315.695 279.456 317.573 280.508 319.122 281.959C323.989 286.766 324.796 295.427 323.906 301.954C323.098 307.921 321.648 318.634 316.222 321.907C314.818 322.783 313.196 323.242 311.542 323.233V323.233ZM303.506 300.441C303.172 300.437 302.841 300.5 302.533 300.628C301.779 301.05 301.156 301.671 300.732 302.424C300.308 303.177 300.1 304.032 300.13 304.896C300.212 306.859 300.676 308.788 301.497 310.573C302.533 313.226 305.391 319.587 309.781 321.079C310.687 321.368 311.648 321.446 312.588 321.306C313.529 321.166 314.425 320.812 315.207 320.27C319.867 317.473 321.276 306.947 321.959 301.892C322.808 295.676 322.125 287.595 317.817 283.243C316.594 282.092 315.124 281.237 313.519 280.745C311.913 280.253 310.217 280.137 308.559 280.405C309.092 285.121 310.936 289.593 313.882 293.313C314.033 293.5 314.107 293.737 314.088 293.977C314.068 294.216 313.958 294.438 313.778 294.598C313.602 294.764 313.368 294.857 313.126 294.857C312.884 294.857 312.65 294.764 312.474 294.598C311.086 293.231 306.509 291.283 304.459 292.277C304.003 292.485 303.423 292.961 303.568 294.577C303.749 295.376 304.102 296.126 304.604 296.774L306.343 299.343C306.799 299.639 307.184 300.032 307.471 300.494C307.757 300.956 307.938 301.476 308 302.016C308.022 302.227 307.973 302.44 307.86 302.62C307.748 302.8 307.578 302.938 307.379 303.011C307.181 303.081 306.964 303.083 306.765 303.016C306.566 302.948 306.395 302.815 306.281 302.638L304.997 300.731C304.534 300.507 304.02 300.407 303.506 300.441Z" fill="#231F20"/>
<path d="M258.207 392.602C258.083 392.622 257.956 392.622 257.832 392.602C254.375 391.214 172.672 358.53 154.261 346.873C154.032 346.725 153.869 346.491 153.806 346.219C153.743 345.948 153.786 345.662 153.926 345.423C153.994 345.304 154.086 345.2 154.194 345.118C154.302 345.036 154.425 344.977 154.556 344.945C154.687 344.912 154.822 344.907 154.955 344.93C155.088 344.952 155.214 345.002 155.328 345.076C173.581 356.631 257.713 390.295 258.563 390.622C258.817 390.722 259.021 390.923 259.133 391.179C259.244 391.436 259.252 391.727 259.155 391.99C259.074 392.177 258.94 392.335 258.771 392.444C258.602 392.553 258.406 392.608 258.207 392.602Z" fill="white"/>
<path d="M161.722 258.187C179.671 258.187 194.222 243.626 194.222 225.664C194.222 207.701 179.671 193.14 161.722 193.14C143.773 193.14 129.222 207.701 129.222 225.664C129.222 243.626 143.773 258.187 161.722 258.187Z" fill="#231F20"/>
<path d="M163.167 259.632C144.437 259.632 129.222 244.402 129.222 225.674C129.222 206.946 144.457 191.695 163.167 191.695C181.876 191.695 197.111 206.946 197.111 225.674C197.111 244.402 181.896 259.632 163.167 259.632ZM163.167 193.801C145.536 193.801 131.219 208.105 131.219 225.674C131.219 243.243 145.556 257.526 163.167 257.526C180.778 257.526 195.114 243.243 195.114 225.674C195.114 208.105 180.798 193.801 163.167 193.801Z" fill="#231F20"/>
<path d="M145.111 235.951L137.889 231.061V224.603L145.111 219.713C147.519 218.111 149.926 216.48 152.333 214.822V222.639C151.051 223.558 149.769 224.457 148.487 225.314C147.206 226.17 145.942 227.048 144.642 227.989L148.487 230.455L152.333 232.941V240.841L145.111 235.951Z" fill="white"/>
<path d="M155.222 242.959L164.711 206.15L169.667 208.43L160.138 245.178L155.222 242.959Z" fill="white"/>
<path d="M179.778 219.713L188.444 224.603V231.061L179.778 235.951L171.111 240.841V232.941L175.726 230.455L180.341 227.989C178.803 227.048 177.264 226.149 175.726 225.314C174.188 224.478 172.671 223.558 171.111 222.639V214.822L179.778 219.713Z" fill="white"/>
<path d="M94.3125 316.004C94.0456 316.021 93.7833 315.928 93.5833 315.747C93.3832 315.566 93.2619 315.31 93.2458 315.038C93.2298 314.765 93.3205 314.497 93.4979 314.293C93.6753 314.088 93.9249 313.964 94.1918 313.948L142.493 307.963L150.161 268.455L88.2748 263.107C88.1269 263.097 87.9832 263.053 87.8543 262.978C87.7253 262.904 87.6146 262.8 87.5302 262.675C87.4398 262.554 87.3783 262.413 87.3504 262.263C87.3224 262.113 87.3289 261.959 87.3692 261.812L112.808 165.026C112.877 164.753 113.05 164.52 113.288 164.377C113.525 164.234 113.809 164.194 114.076 164.265C114.343 164.336 114.571 164.512 114.711 164.755C114.85 164.998 114.89 165.288 114.82 165.56L89.6836 261.174L151.409 266.398C151.55 266.414 151.687 266.458 151.812 266.529C151.936 266.599 152.045 266.695 152.133 266.809C152.217 266.926 152.277 267.06 152.308 267.201C152.339 267.343 152.342 267.489 152.314 267.632L144.264 308.991C144.22 309.203 144.114 309.395 143.959 309.543C143.804 309.69 143.608 309.785 143.399 309.814L94.3125 315.881V316.004Z" fill="#231F20"/>
<path d="M357.444 35.5826H257.778V45.7009H357.444V35.5826Z" fill="#E6E7E8"/>
<path d="M467.222 35.5826H369V45.7009H467.222V35.5826Z" fill="#E6E7E8"/>
<path d="M357.444 52.9283H298.222V63.0467H357.444V52.9283Z" fill="#FF155E"/>
<path d="M458.556 52.9283H369V63.0467H458.556V52.9283Z" fill="#E6E7E8"/>
<path d="M357.444 71.7196H283.778V83.2835H357.444V71.7196Z" fill="#E6E7E8"/>
<path d="M410.889 71.7196H369V83.2835H410.889V71.7196Z" fill="#E6E7E8"/>
<path d="M357.444 89.0654H315.556V100.629H357.444V89.0654Z" fill="#E6E7E8"/>
<path d="M449.889 89.0654H369V100.629H449.889V89.0654Z" fill="#FF155E"/>
<path d="M357.444 107.857H344.444V119.421H357.444V107.857Z" fill="#FF155E"/>
<path d="M423.889 107.857H369V119.421H423.889V107.857Z" fill="#E6E7E8"/>
<path d="M356 183.022H263.556V194.586H356V183.022Z" fill="#FF155E"/>
<path d="M426.778 183.022H370.444V194.586H426.778V183.022Z" fill="#E6E7E8"/>
<path d="M356 203.259H282.333V216.268H356V203.259Z" fill="#E6E7E8"/>
<path d="M451.333 203.259H370.444V216.268H451.333V203.259Z" fill="#E6E7E8"/>
<path d="M356 224.941H318.444V237.95H356V224.941Z" fill="#E6E7E8"/>
<path d="M467.222 224.941H370.444V237.95H467.222V224.941Z" fill="#E6E7E8"/>
<path d="M356 246.623H341.556V258.187H356V246.623Z" fill="#E6E7E8"/>
<path d="M473 246.623H370.444V258.187H473V246.623Z" fill="#FF155E"/>
<path d="M439.778 265.414H370.444V278.424H439.778V265.414Z" fill="#E6E7E8"/>
<path d="M406.556 156.978L399.333 153.981V149.986L406.556 146.99L413.778 143.994V148.748C412.472 149.327 411.185 149.866 409.936 150.386C408.688 150.905 407.362 151.445 406.095 152.024L409.936 153.542L413.778 155.06V159.894L406.556 156.978Z" fill="#E6E7E8"/>
<path d="M415.222 161.277L423.749 138.212L428.222 139.619L419.638 162.785L415.222 161.277Z" fill="#E6E7E8"/>
<path d="M439.056 146.975C441.697 147.969 444.359 148.963 447 149.956V153.931L439.056 156.913L431.111 159.894V155.025L435.337 153.514L439.563 152.004C438.126 151.427 436.71 150.891 435.337 150.374C433.964 149.857 432.506 149.32 431.111 148.744V143.994L439.056 146.975Z" fill="#E6E7E8"/>
<path d="M260.667 8.99183C260.664 8.48742 260.768 7.9889 260.97 7.53393C261.147 7.07045 261.416 6.65444 261.759 6.3154C262.096 5.98052 262.487 5.715 262.912 5.53206C263.368 5.33089 263.856 5.2274 264.349 5.22742C264.815 5.23201 265.275 5.33554 265.704 5.53206C266.121 5.72023 266.505 5.98532 266.837 6.3154C267.161 6.66728 267.421 7.08037 267.606 7.53393C267.793 7.99365 267.889 8.49005 267.889 8.99183C267.889 9.50063 267.793 10.0041 267.606 10.4715C267.416 10.9023 267.155 11.2929 266.837 11.6247C266.16 12.3043 265.274 12.6917 264.349 12.7127C263.856 12.7127 263.368 12.6093 262.912 12.4081C262.483 12.2335 262.09 11.967 261.759 11.6247C261.423 11.3055 261.154 10.9122 260.97 10.4715C260.767 10.0089 260.664 9.50326 260.667 8.99183V8.99183ZM260.667 21.7429C260.677 21.2447 260.778 20.7535 260.966 20.2978C261.153 19.8421 261.423 19.431 261.759 19.0883C262.089 18.7392 262.482 18.4653 262.912 18.2832C263.37 18.0894 263.857 17.9934 264.349 18.0003C264.813 17.9974 265.274 18.0936 265.704 18.2832C266.126 18.4709 266.511 18.7442 266.837 19.0883C267.16 19.4321 267.421 19.838 267.606 20.285C267.792 20.7487 267.888 21.2486 267.888 21.7538C267.888 22.259 267.792 22.7589 267.606 23.2226C267.421 23.6632 267.16 24.0619 266.837 24.3976C266.505 24.7277 266.121 24.9928 265.704 25.1809C265.274 25.3706 264.813 25.4667 264.349 25.4638C263.857 25.4708 263.37 25.3747 262.912 25.1809C262.487 24.998 262.096 24.7325 261.759 24.3976C261.418 24.0745 261.148 23.6729 260.97 23.2226C260.765 22.7608 260.662 22.2546 260.667 21.7429V21.7429Z" fill="#E6E7E8"/>
<path d="M377.667 355.891C378.452 355.933 379.229 355.699 379.872 355.226C380.428 354.79 380.687 353.876 380.687 352.463V346.023C380.685 344.956 380.819 343.894 381.084 342.865C381.331 341.905 381.749 341.003 382.316 340.205C382.894 339.439 383.627 338.814 384.462 338.377C385.456 337.893 386.544 337.658 387.641 337.692H392.111V344.381H390.542C390.183 344.344 389.822 344.41 389.497 344.571C389.171 344.732 388.894 344.982 388.694 345.295C388.35 345.928 388.178 346.646 388.197 347.373V353.938C388.219 354.77 388.077 355.597 387.78 356.369C387.541 356.965 387.205 357.513 386.786 357.989C386.421 358.4 385.982 358.731 385.495 358.966C385.106 359.18 384.681 359.314 384.243 359.36V359.36C384.675 359.444 385.096 359.583 385.495 359.776C385.981 359.995 386.42 360.312 386.786 360.711C387.743 361.818 388.249 363.271 388.197 364.762V371.348C388.172 372.075 388.344 372.795 388.694 373.425C388.891 373.742 389.168 373.997 389.493 374.162C389.819 374.326 390.181 374.395 390.542 374.36H392.111V381.05H387.641C386.544 381.084 385.456 380.849 384.462 380.364C383.627 379.927 382.894 379.303 382.316 378.536C381.753 377.736 381.336 376.834 381.084 375.877C380.82 374.84 380.686 373.771 380.687 372.698V366.258C380.756 365.766 380.718 365.264 380.577 364.79C380.436 364.315 380.195 363.88 379.872 363.515C379.229 363.042 378.452 362.808 377.667 362.851V355.891Z" fill="#E6E7E8"/>
<path d="M447 362.833C446.13 362.791 445.27 363.025 444.556 363.499C444.204 363.866 443.942 364.302 443.788 364.776C443.633 365.251 443.59 365.752 443.661 366.244V372.69C443.661 373.764 443.514 374.834 443.224 375.872C442.957 376.834 442.498 377.737 441.871 378.534C441.247 379.311 440.439 379.938 439.514 380.364C438.422 380.849 437.226 381.084 436.022 381.05H431.111V374.291H432.857C433.249 374.322 433.643 374.252 433.996 374.087C434.35 373.922 434.65 373.67 434.865 373.356C435.249 372.725 435.438 372.004 435.411 371.276V364.684C435.389 363.858 435.545 363.037 435.869 362.272C436.136 361.666 436.513 361.11 436.982 360.629C437.379 360.232 437.853 359.914 438.379 359.693C438.826 359.503 439.295 359.363 439.776 359.277V359.277C439.289 359.229 438.815 359.095 438.379 358.882C437.849 358.648 437.375 358.316 436.982 357.905C436.508 357.435 436.131 356.885 435.869 356.283C435.542 355.51 435.386 354.682 435.411 353.85V347.257C435.431 346.53 435.243 345.811 434.865 345.178C434.647 344.868 434.346 344.619 433.993 344.458C433.639 344.297 433.247 344.23 432.857 344.263H431.111V337.692H436.022C437.226 337.658 438.422 337.893 439.514 338.378C440.439 338.803 441.247 339.43 441.871 340.208C442.502 341.001 442.962 341.906 443.224 342.87C443.516 343.9 443.662 344.963 443.661 346.031V352.477C443.588 352.972 443.63 353.477 443.785 353.955C443.94 354.433 444.203 354.873 444.556 355.243C445.27 355.717 446.13 355.951 447 355.908V362.833Z" fill="#E6E7E8"/>
</svg>
